<svg width="29" height="29" viewBox="0 0 29 29" fill="none" xmlns="http://www.w3.org/2000/svg">
<g clip-path="url(#clip0_1_229)">
<path d="M28.227 14.7488C28.227 13.7971 28.1499 12.8403 27.9853 11.9041H14.78V17.2952H22.342C22.0283 19.0339 21.02 20.5721 19.5436 21.5495V25.0475H24.0551C26.7044 22.6092 28.227 19.0082 28.227 14.7488Z" fill="#4285F4"/>
<path d="M14.78 28.4273C18.5559 28.4273 21.7402 27.1875 24.0602 25.0475L19.5487 21.5495C18.2935 22.4034 16.6731 22.8869 14.7852 22.8869C11.1328 22.8869 8.03596 20.4229 6.92481 17.11H2.26929V20.7161C4.64592 25.4436 9.48663 28.4273 14.78 28.4273V28.4273Z" fill="#34A853"/>
<path d="M6.91966 17.1099C6.33322 15.3712 6.33322 13.4884 6.91966 11.7497V8.14355H2.26928C0.283612 12.0995 0.283612 16.7601 2.26928 20.716L6.91966 17.1099V17.1099Z" fill="#FBBC04"/>
<path d="M14.78 5.96754C16.776 5.93668 18.7051 6.68773 20.1506 8.06638L24.1477 4.06932C21.6167 1.69269 18.2575 0.386059 14.78 0.427213C9.48663 0.427213 4.64592 3.41086 2.26929 8.14355L6.91966 11.7496C8.02567 8.43163 11.1276 5.96754 14.78 5.96754V5.96754Z" fill="#EA4335"/>
</g>
<defs>
<clipPath id="clip0_1_229">
<rect width="28" height="28" fill="white" transform="translate(0.5 0.42627)"/>
</clipPath>
</defs>
</svg>
