<svg width="186" height="191" viewBox="0 0 186 191" fill="none" xmlns="http://www.w3.org/2000/svg">
<path d="M58.084 187.162C57.004 187.162 56.038 186.946 55.186 186.514C54.346 186.082 53.686 185.488 53.206 184.732C52.726 183.964 52.486 183.088 52.486 182.104C52.486 181.12 52.726 180.25 53.206 179.494C53.686 178.738 54.346 178.15 55.186 177.73C56.038 177.298 57.004 177.082 58.084 177.082C59.188 177.082 60.142 177.316 60.946 177.784C61.75 178.252 62.32 178.912 62.656 179.764L60.01 181.114C59.782 180.658 59.5 180.328 59.164 180.124C58.828 179.908 58.462 179.8 58.066 179.8C57.67 179.8 57.31 179.89 56.986 180.07C56.662 180.25 56.404 180.514 56.212 180.862C56.032 181.198 55.942 181.612 55.942 182.104C55.942 182.608 56.032 183.034 56.212 183.382C56.404 183.73 56.662 183.994 56.986 184.174C57.31 184.354 57.67 184.444 58.066 184.444C58.462 184.444 58.828 184.342 59.164 184.138C59.5 183.922 59.782 183.586 60.01 183.13L62.656 184.48C62.32 185.332 61.75 185.992 60.946 186.46C60.142 186.928 59.188 187.162 58.084 187.162ZM68.7342 187.162C67.6662 187.162 66.7182 186.946 65.8902 186.514C65.0622 186.082 64.4082 185.488 63.9282 184.732C63.4602 183.964 63.2262 183.088 63.2262 182.104C63.2262 181.12 63.4602 180.25 63.9282 179.494C64.4082 178.738 65.0622 178.15 65.8902 177.73C66.7182 177.298 67.6662 177.082 68.7342 177.082C69.8022 177.082 70.7502 177.298 71.5782 177.73C72.4182 178.15 73.0722 178.738 73.5402 179.494C74.0082 180.25 74.2422 181.12 74.2422 182.104C74.2422 183.088 74.0082 183.964 73.5402 184.732C73.0722 185.488 72.4182 186.082 71.5782 186.514C70.7502 186.946 69.8022 187.162 68.7342 187.162ZM68.7342 184.444C69.1302 184.444 69.4782 184.354 69.7782 184.174C70.0902 183.994 70.3362 183.73 70.5162 183.382C70.6962 183.022 70.7862 182.596 70.7862 182.104C70.7862 181.612 70.6962 181.198 70.5162 180.862C70.3362 180.514 70.0902 180.25 69.7782 180.07C69.4782 179.89 69.1302 179.8 68.7342 179.8C68.3502 179.8 68.0022 179.89 67.6902 180.07C67.3902 180.25 67.1442 180.514 66.9522 180.862C66.7722 181.198 66.6822 181.612 66.6822 182.104C66.6822 182.596 66.7722 183.022 66.9522 183.382C67.1442 183.73 67.3902 183.994 67.6902 184.174C68.0022 184.354 68.3502 184.444 68.7342 184.444ZM79.9305 187.162C79.1385 187.162 78.4245 187.006 77.7885 186.694C77.1645 186.382 76.6725 185.896 76.3125 185.236C75.9645 184.564 75.7905 183.718 75.7905 182.698V177.244H79.2105V182.14C79.2105 182.896 79.3485 183.436 79.6245 183.76C79.9125 184.084 80.3145 184.246 80.8305 184.246C81.1665 184.246 81.4725 184.168 81.7485 184.012C82.0245 183.856 82.2465 183.61 82.4145 183.274C82.5825 182.926 82.6665 182.482 82.6665 181.942V177.244H86.0865V187H82.8285V184.246L83.4585 185.02C83.1225 185.74 82.6365 186.28 82.0005 186.64C81.3645 186.988 80.6745 187.162 79.9305 187.162ZM88.2894 187V177.244H91.5474V180.088L91.0614 179.278C91.3494 178.546 91.8174 178 92.4654 177.64C93.1134 177.268 93.8994 177.082 94.8234 177.082V180.16C94.6674 180.136 94.5294 180.124 94.4094 180.124C94.3014 180.112 94.1814 180.106 94.0494 180.106C93.3534 180.106 92.7894 180.298 92.3574 180.682C91.9254 181.054 91.7094 181.666 91.7094 182.518V187H88.2894ZM99.8159 187.162C98.9879 187.162 98.1779 187.066 97.3859 186.874C96.6059 186.682 95.9759 186.442 95.4959 186.154L96.5219 183.814C96.9779 184.09 97.5119 184.312 98.1239 184.48C98.7359 184.636 99.3359 184.714 99.9239 184.714C100.5 184.714 100.896 184.654 101.112 184.534C101.34 184.414 101.454 184.252 101.454 184.048C101.454 183.856 101.346 183.718 101.13 183.634C100.926 183.538 100.65 183.466 100.302 183.418C99.9659 183.37 99.5939 183.316 99.1859 183.256C98.7779 183.196 98.3639 183.118 97.9439 183.022C97.5359 182.914 97.1579 182.758 96.8099 182.554C96.4739 182.338 96.2039 182.05 95.9999 181.69C95.7959 181.33 95.6939 180.874 95.6939 180.322C95.6939 179.698 95.8739 179.146 96.2339 178.666C96.6059 178.174 97.1459 177.79 97.8539 177.514C98.5619 177.226 99.4259 177.082 100.446 177.082C101.13 177.082 101.82 177.154 102.516 177.298C103.224 177.43 103.818 177.634 104.298 177.91L103.272 180.232C102.792 179.956 102.312 179.77 101.832 179.674C101.352 179.566 100.896 179.512 100.464 179.512C99.8879 179.512 99.4799 179.578 99.2399 179.71C99.0119 179.842 98.8979 180.004 98.8979 180.196C98.8979 180.388 98.9999 180.538 99.2039 180.646C99.4079 180.742 99.6779 180.82 100.014 180.88C100.362 180.928 100.74 180.982 101.148 181.042C101.556 181.09 101.964 181.168 102.372 181.276C102.792 181.384 103.17 181.546 103.506 181.762C103.854 181.966 104.13 182.248 104.334 182.608C104.538 182.956 104.64 183.406 104.64 183.958C104.64 184.558 104.454 185.098 104.082 185.578C103.722 186.058 103.182 186.442 102.462 186.73C101.754 187.018 100.872 187.162 99.8159 187.162ZM111.226 187.162C110.074 187.162 109.066 186.946 108.202 186.514C107.35 186.07 106.684 185.47 106.204 184.714C105.736 183.946 105.502 183.076 105.502 182.104C105.502 181.132 105.73 180.268 106.186 179.512C106.654 178.744 107.296 178.15 108.112 177.73C108.928 177.298 109.846 177.082 110.866 177.082C111.826 177.082 112.702 177.28 113.494 177.676C114.286 178.06 114.916 178.63 115.384 179.386C115.852 180.142 116.086 181.06 116.086 182.14C116.086 182.26 116.08 182.398 116.068 182.554C116.056 182.71 116.044 182.854 116.032 182.986H108.31V181.186H114.214L112.918 181.69C112.93 181.246 112.846 180.862 112.666 180.538C112.498 180.214 112.258 179.962 111.946 179.782C111.646 179.602 111.292 179.512 110.884 179.512C110.476 179.512 110.116 179.602 109.804 179.782C109.504 179.962 109.27 180.22 109.102 180.556C108.934 180.88 108.85 181.264 108.85 181.708V182.23C108.85 182.71 108.946 183.124 109.138 183.472C109.342 183.82 109.63 184.09 110.002 184.282C110.374 184.462 110.818 184.552 111.334 184.552C111.814 184.552 112.222 184.486 112.558 184.354C112.906 184.21 113.248 183.994 113.584 183.706L115.384 185.578C114.916 186.094 114.34 186.49 113.656 186.766C112.972 187.03 112.162 187.162 111.226 187.162ZM117.662 187V177.244H120.92V180.088L120.434 179.278C120.722 178.546 121.19 178 121.838 177.64C122.486 177.268 123.272 177.082 124.196 177.082V180.16C124.04 180.136 123.902 180.124 123.782 180.124C123.674 180.112 123.554 180.106 123.422 180.106C122.726 180.106 122.162 180.298 121.73 180.682C121.298 181.054 121.082 181.666 121.082 182.518V187H117.662ZM130.986 187V185.182L130.752 184.732V181.384C130.752 180.844 130.584 180.43 130.248 180.142C129.924 179.842 129.402 179.692 128.682 179.692C128.214 179.692 127.74 179.77 127.26 179.926C126.78 180.07 126.372 180.274 126.036 180.538L124.884 178.216C125.436 177.856 126.096 177.58 126.864 177.388C127.644 177.184 128.418 177.082 129.186 177.082C130.77 177.082 131.994 177.448 132.858 178.18C133.734 178.9 134.172 180.034 134.172 181.582V187H130.986ZM128.106 187.162C127.326 187.162 126.666 187.03 126.126 186.766C125.586 186.502 125.172 186.142 124.884 185.686C124.608 185.23 124.47 184.72 124.47 184.156C124.47 183.556 124.62 183.04 124.92 182.608C125.232 182.164 125.706 181.828 126.342 181.6C126.978 181.36 127.8 181.24 128.808 181.24H131.112V183.022H129.276C128.724 183.022 128.334 183.112 128.106 183.292C127.89 183.472 127.782 183.712 127.782 184.012C127.782 184.312 127.896 184.552 128.124 184.732C128.352 184.912 128.664 185.002 129.06 185.002C129.432 185.002 129.768 184.912 130.068 184.732C130.38 184.54 130.608 184.252 130.752 183.868L131.22 185.128C131.04 185.8 130.686 186.31 130.158 186.658C129.642 186.994 128.958 187.162 128.106 187.162Z" fill="#213555"/>
<path d="M133.778 117.975L117.421 124.592L97.7421 132.543C97.7421 132.543 97.7278 132.543 97.7136 132.543L97.6142 132.585C97.6142 132.585 97.5007 132.614 97.4581 132.642C97.3019 132.699 97.1457 132.756 96.9895 132.798C96.9043 132.827 96.805 132.841 96.7198 132.869C96.5778 132.898 96.45 132.94 96.308 132.969C96.1944 132.997 96.095 133.011 95.9956 133.026C95.8678 133.04 95.7542 133.068 95.6264 133.068C95.5129 133.068 95.3993 133.082 95.2857 133.097C95.1721 133.097 95.0443 133.097 94.9307 133.097C94.732 133.097 94.5332 133.097 94.3344 133.068C94.306 133.068 94.2776 133.068 94.2492 133.068C94.0788 133.054 93.8942 133.026 93.7239 132.997C93.6671 132.997 93.6103 132.983 93.5535 132.969C93.5251 132.969 93.5109 132.969 93.4825 132.955C93.3547 132.926 93.2127 132.898 93.085 132.855C93.014 132.841 92.9429 132.827 92.8719 132.798C92.7158 132.756 92.5596 132.699 92.4034 132.642C92.3466 132.628 92.2898 132.614 92.2472 132.585L37.8103 110.592C34.1187 109.101 32.1309 104.941 33.5507 101.235C34.999 97.4584 39.2585 95.6126 42.9927 97.1176L91.3669 116.669L92.1762 116.995C93.951 117.705 95.9247 117.705 97.6995 116.995L141.431 99.3184L150.546 95.641C151.625 95.215 151.526 93.9513 150.617 93.4544L100.184 70.7084C96.8475 69.2034 93.0281 69.2034 89.6915 70.7084L36.9442 94.4909C34.3317 95.4138 32.1877 97.4158 31.1086 100.099C29.064 105.154 31.5204 110.933 36.575 112.977L90.9836 134.957C91.6225 135.241 92.304 135.439 92.9997 135.581C93.0423 135.581 93.085 135.595 93.1275 135.61C93.3689 135.652 93.6103 135.695 93.8516 135.709C93.9226 135.709 93.9936 135.723 94.0646 135.737C94.3486 135.766 94.6326 135.78 94.9307 135.78C96.1944 135.78 97.4438 135.539 98.6365 135.056L148.487 114.922C150.901 113.943 151.327 113.077 151.327 110.89L133.806 117.961L133.778 117.975ZM37.7535 94.2353C37.7535 94.2353 37.7109 94.2353 37.6967 94.2495C37.7109 94.2495 37.7393 94.2495 37.7535 94.2353ZM39.4431 93.9513C39.4431 93.9513 39.3295 93.9513 39.2727 93.9655C39.3295 93.9655 39.3863 93.9655 39.4431 93.9513ZM38.6054 94.0507C38.6054 94.0507 38.5202 94.0649 38.4776 94.0791C38.5202 94.0791 38.5628 94.0649 38.6054 94.0507Z" fill="#213555"/>
<path d="M94.9164 129.717C94.1497 129.717 93.383 129.604 92.6163 129.377C92.5879 129.377 92.5595 129.362 92.5453 129.348L40.0819 108.121C39.656 107.951 39.443 107.454 39.6276 107.028C39.798 106.602 40.2949 106.389 40.7209 106.574L93.1558 127.786C94.3627 128.127 95.5412 128.127 96.7481 127.786L147.38 107.369C147.806 107.199 148.289 107.397 148.473 107.837C148.643 108.263 148.445 108.746 148.005 108.931L97.3444 129.362C97.3444 129.362 97.2876 129.377 97.2734 129.391C96.5067 129.618 95.7399 129.731 94.959 129.731" fill="#213555"/>
<path d="M94.9164 123.896C94.1497 123.896 93.383 123.782 92.6163 123.555C92.5879 123.555 92.5595 123.541 92.5453 123.527L40.0819 102.3C39.656 102.13 39.443 101.647 39.6276 101.207C39.798 100.781 40.2949 100.568 40.7209 100.738L93.1558 121.951C94.3627 122.291 95.5412 122.306 96.7481 121.951L147.38 101.533C147.806 101.363 148.289 101.562 148.473 102.002C148.643 102.428 148.445 102.911 148.005 103.095L97.3444 123.527C97.3444 123.527 97.2876 123.541 97.2734 123.555C96.5067 123.782 95.7399 123.896 94.959 123.896" fill="#213555"/>
<path d="M90.8275 43.9159L49.5384 62.7715C48.5019 63.24 48.5019 64.7166 49.5384 65.1994L90.8275 84.055C92.077 84.6229 93.511 84.6229 94.7605 84.055L136.05 65.1994C137.086 64.7308 137.086 63.2542 136.05 62.7715L94.7605 43.9159C93.511 43.3479 92.077 43.3479 90.8275 43.9159Z" fill="#213555"/>
<path d="M92.5593 106.375C74.3995 106.375 60.7122 100.199 60.7122 92.0061V70.5806L89.7906 83.8562C90.7419 84.2822 91.75 84.5093 92.7865 84.5093C93.823 84.5093 94.8311 84.2822 95.7824 83.8562L124.421 70.7794V92.0061C124.421 100.199 110.719 106.375 92.5735 106.375" fill="white"/>
<path d="M96.7482 85.9575C95.4988 86.5255 94.1641 86.8237 92.7868 86.8237C91.4096 86.8237 90.075 86.5397 88.8255 85.9575L63.0269 74.1728V91.9919C63.0269 98.651 76.2456 104.046 92.5597 104.046C108.874 104.046 122.093 98.651 122.093 91.9919V74.3716L96.734 85.9434L96.7482 85.9575Z" fill="#213555"/>
<path d="M34.7578 35.198C31.2792 38.1371 30.4983 42.922 30.4983 42.922C30.4983 42.922 35.34 42.9504 38.8186 40.0113C42.2972 37.0722 43.0782 32.2873 43.0782 32.2873C43.0782 32.2873 38.2365 32.2589 34.7578 35.198Z" fill="#213555"/>
<path d="M54.1245 148.942C56.879 152.761 56.879 157.149 56.8506 157.163C56.8506 157.22 50.8446 155.289 48.2747 151.1C45.7048 146.954 47.1814 142.822 47.1388 142.837C47.153 142.879 51.37 145.165 54.1245 148.956" fill="#213555"/>
<path d="M49.3819 161.635C54.7489 160.926 56.8929 156.978 56.8929 157.007C56.8361 157.021 51.1709 155.161 46.2299 155.558C41.232 155.984 38.1935 158.952 38.1935 158.995C38.1225 158.995 43.9581 162.374 49.3819 161.65" fill="#213555"/>
<path d="M43.7594 143.916C45.591 148.062 44.7249 152.279 44.6823 152.293C44.6823 152.35 39.4431 149.496 37.8102 145.009C36.1632 140.579 38.364 136.831 38.3356 136.831C38.3356 136.873 41.9278 139.812 43.7594 143.916Z" fill="#213555"/>
<path d="M36.8022 155.36C41.9846 155.573 44.7533 152.108 44.7533 152.137C44.6965 152.137 39.7838 149.41 35.0131 148.956C30.1998 148.516 26.7213 150.887 26.7071 150.916C26.6361 150.916 31.5629 155.147 36.8022 155.345" fill="#213555"/>
<path d="M34.8855 137.313C35.851 141.63 34.204 145.563 34.1614 145.563C34.1614 145.62 29.7173 141.985 28.9648 137.356C28.2123 132.784 31.0093 129.518 30.9809 129.518C30.9809 129.561 33.9058 133.025 34.8855 137.313Z" fill="#213555"/>
<path d="M26.0683 147.196C30.981 148.275 34.275 145.392 34.2608 145.435C34.204 145.435 30.0581 141.956 25.543 140.707C20.9853 139.457 17.1942 141.147 17.18 141.175C17.1233 141.175 21.0846 146.116 26.0541 147.196" fill="#213555"/>
<path d="M27.5734 129.377C27.7296 133.735 25.4011 137.257 25.3727 137.257C25.3727 137.313 21.7378 133.011 21.8372 128.397C21.9224 123.825 25.2023 121.127 25.1739 121.127C25.1739 121.17 27.4172 125.06 27.5734 129.377Z" fill="#213555"/>
<path d="M17.2512 137.441C21.8089 139.344 25.5005 137.115 25.4863 137.143C25.4437 137.143 22.0645 133.054 17.9043 131.052C13.7016 129.05 9.69761 130.03 9.68341 130.058C9.62662 130.044 12.6225 135.539 17.237 137.441" fill="#213555"/>
<path d="M21.8798 120.403C21.2693 124.677 18.387 127.687 18.3586 127.687C18.3444 127.744 15.5757 122.93 16.456 118.43C17.3221 113.971 20.9853 111.927 20.9569 111.927C20.9569 111.969 22.4761 116.158 21.894 120.403" fill="#213555"/>
<path d="M10.4071 126.437C14.5246 129.078 18.5002 127.559 18.486 127.587C18.4434 127.573 15.8877 123.016 12.1535 120.318C8.39092 117.62 4.31595 117.862 4.28755 117.89C4.23076 117.862 6.23273 123.768 10.3929 126.423" fill="#213555"/>
<path d="M17.833 110.62C16.5126 114.695 13.1759 117.123 13.1617 117.109C13.1333 117.152 11.2449 111.969 12.8493 107.724C14.4396 103.507 18.3725 102.158 18.3441 102.144C18.3299 102.186 19.1393 106.574 17.833 110.62Z" fill="#213555"/>
<path d="M5.59412 114.497C9.17213 117.819 13.3181 117.024 13.3039 117.052C13.2613 117.024 11.5291 112.125 8.33446 108.831C5.09721 105.523 1.06483 105.026 1.05063 105.055C1.00804 105.026 1.98772 111.16 5.60833 114.497" fill="#213555"/>
<path d="M15.5188 100.312C13.5594 104.075 9.882 105.864 9.8536 105.85C9.82521 105.892 8.83134 100.468 11.1173 96.5639C13.3748 92.7019 17.4498 92.0629 17.4214 92.0487C17.393 92.0771 17.4498 96.5639 15.5046 100.312" fill="#213555"/>
<path d="M2.89624 101.931C5.84952 105.821 10.0381 105.793 10.0097 105.821C9.98129 105.793 9.101 100.667 6.51687 96.8478C3.90435 93 0.0423452 91.7931 0.0139482 91.8215C-0.0286472 91.7789 -0.099641 98.0121 2.89624 101.945" fill="#213555"/>
<path d="M14.9792 89.7344C12.4235 93.0994 8.53314 94.2069 8.50474 94.1785C8.46214 94.2211 8.40535 88.6837 11.3018 85.2335C14.1699 81.8116 18.2733 81.911 18.2449 81.8826C18.2165 81.911 17.4924 86.3693 14.965 89.7202" fill="#213555"/>
<path d="M2.34254 89.067C4.5717 93.4402 8.68923 94.1643 8.66084 94.1785C8.63244 94.1501 8.63245 88.9392 6.75825 84.6939C4.85565 80.4202 1.29184 78.5318 1.26345 78.546C1.23505 78.5034 0.0849855 84.6655 2.34254 89.0812" fill="#213555"/>
<path d="M16.2572 79.1565C13.1619 82.0388 9.17213 82.4363 9.15793 82.4079C9.11533 82.4363 10.0098 76.9415 13.4601 74.0308C16.8819 71.1344 20.8859 71.9579 20.8717 71.9295C20.8291 71.9579 19.3098 76.2742 16.2572 79.1565Z" fill="#213555"/>
<path d="M4.01807 76.2316C5.43791 80.9739 9.3425 82.4222 9.2999 82.4364C9.2857 82.3938 10.166 77.2397 9.1011 72.6678C8.00782 68.0817 4.86996 65.5544 4.84156 65.5544C4.81316 65.5118 2.56982 71.4468 4.01807 76.2316Z" fill="#213555"/>
<path d="M19.4233 68.8342C15.8594 71.1769 11.8839 70.8504 11.8697 70.822C11.8129 70.8504 13.6871 65.526 17.6484 63.2116C21.5672 60.9115 25.344 62.4449 25.3298 62.4165C25.2872 62.4307 22.9445 66.5056 19.4233 68.8342Z" fill="#213555"/>
<path d="M7.97949 63.7511C8.49063 68.7348 12.0544 70.8788 12.0119 70.8788C11.9977 70.8362 13.8008 65.8525 13.6447 61.0818C13.4601 56.2827 10.876 53.2017 10.8476 53.2017C10.8192 53.1449 7.43995 58.7107 7.97949 63.7369" fill="#213555"/>
<path d="M24.5205 59.0515C20.5449 60.7695 16.7113 59.7472 16.6971 59.7188C16.6403 59.733 19.5226 54.7351 23.9241 53.0881C28.2689 51.4553 31.7049 53.6277 31.6907 53.5993C31.6339 53.5993 28.4535 57.3193 24.5205 59.0515Z" fill="#213555"/>
<path d="M14.2838 51.938C13.7868 57.0353 16.8821 59.804 16.8395 59.804C16.8395 59.7614 19.5798 55.0759 20.4175 50.2484C21.2268 45.3925 19.3526 41.8287 19.31 41.8287C19.2958 41.7719 14.7665 46.7982 14.2838 51.938Z" fill="#213555"/>
<path d="M31.6197 50.0638C27.3033 51.1287 23.7395 49.4249 23.7253 49.3965C23.6543 49.3965 27.5731 44.853 32.3438 43.9301C37.0576 43.0072 40.011 45.7901 39.9968 45.7617C39.94 45.7617 35.8792 48.999 31.6055 50.078" fill="#213555"/>
<path d="M23.0011 41.133C21.3967 46.2018 23.8814 49.5101 23.8388 49.5101C23.8388 49.4675 27.5446 45.2079 29.4756 40.4656C31.3924 35.6808 30.3418 31.7478 30.2992 31.7478C30.2992 31.691 24.5772 36.0215 23.0011 41.133Z" fill="#213555"/>
<path d="M73.889 159.151L73.8464 158.214C66.0515 158.625 58.3275 157.461 50.9159 154.778C43.6889 152.151 37.0582 148.189 31.1942 142.993C19.0403 132.216 11.5009 117.208 9.98167 100.738C8.7322 87.2496 10.0811 75.3229 13.9999 65.2846C18.2026 54.508 25.2734 46.216 35.0278 40.636L34.5593 39.8125C24.6203 45.4919 17.4075 53.9542 13.1196 64.9296C9.15819 75.1099 7.78094 87.1786 9.04461 100.823C10.5922 117.535 18.2452 132.77 30.5695 143.703C36.5186 148.97 43.2487 153.003 50.5893 155.658C58.1287 158.398 65.9663 159.577 73.889 159.151Z" fill="#213555"/>
<path d="M150.816 35.198C154.295 38.1371 155.075 42.922 155.075 42.922C155.075 42.922 150.234 42.9504 146.755 40.0113C143.277 37.0722 142.496 32.2873 142.496 32.2873C142.496 32.2873 147.337 32.2589 150.816 35.198Z" fill="#213555"/>
<path d="M131.449 148.942C128.695 152.761 128.695 157.149 128.723 157.163C128.723 157.22 134.729 155.289 137.299 151.1C139.869 146.954 138.392 142.822 138.435 142.837C138.421 142.879 134.204 145.165 131.449 148.956" fill="#213555"/>
<path d="M136.192 161.635C130.825 160.926 128.681 156.978 128.681 157.007C128.737 157.021 134.403 155.161 139.344 155.558C144.342 155.984 147.38 158.952 147.38 158.995C147.451 158.995 141.615 162.374 136.192 161.65" fill="#213555"/>
<path d="M141.814 143.916C139.983 148.062 140.849 152.279 140.891 152.293C140.891 152.35 146.131 149.496 147.763 145.009C149.411 140.579 147.21 136.831 147.238 136.831C147.238 136.873 143.646 139.812 141.814 143.916Z" fill="#213555"/>
<path d="M148.772 155.36C143.589 155.573 140.821 152.108 140.821 152.137C140.877 152.137 145.79 149.41 150.561 148.956C155.374 148.516 158.853 150.887 158.867 150.916C158.938 150.916 154.011 155.147 148.772 155.345" fill="#213555"/>
<path d="M150.688 137.313C149.723 141.63 151.37 145.563 151.412 145.563C151.412 145.62 155.856 141.985 156.609 137.356C157.362 132.784 154.564 129.518 154.593 129.518C154.593 129.561 151.668 133.025 150.688 137.313Z" fill="#213555"/>
<path d="M159.506 147.196C154.593 148.275 151.299 145.392 151.313 145.435C151.37 145.435 155.516 141.956 160.031 140.707C164.589 139.457 168.38 141.147 168.394 141.175C168.451 141.175 164.489 146.116 159.52 147.196" fill="#213555"/>
<path d="M158 129.377C157.844 133.735 160.173 137.257 160.201 137.257C160.201 137.313 163.836 133.011 163.737 128.397C163.651 123.825 160.372 121.127 160.4 121.127C160.4 121.17 158.157 125.06 158 129.377Z" fill="#213555"/>
<path d="M168.323 137.441C163.765 139.344 160.074 137.115 160.088 137.143C160.131 137.143 163.51 133.054 167.67 131.052C171.873 129.05 175.877 130.03 175.891 130.058C175.948 130.044 172.952 135.539 168.337 137.441" fill="#213555"/>
<path d="M163.694 120.403C164.305 124.677 167.187 127.687 167.215 127.687C167.23 127.744 169.998 122.93 169.118 118.43C168.252 113.971 164.589 111.927 164.617 111.927C164.617 111.969 163.098 116.158 163.68 120.403" fill="#213555"/>
<path d="M175.167 126.437C171.049 129.078 167.073 127.559 167.088 127.587C167.13 127.573 169.686 123.016 173.42 120.318C177.183 117.62 181.258 117.862 181.286 117.89C181.343 117.862 179.341 123.768 175.181 126.423" fill="#213555"/>
<path d="M167.741 110.62C169.061 114.695 172.398 117.123 172.412 117.109C172.44 117.152 174.329 111.969 172.724 107.724C171.134 103.507 167.201 102.158 167.23 102.144C167.244 102.186 166.434 106.574 167.741 110.62Z" fill="#213555"/>
<path d="M179.98 114.497C176.402 117.819 172.256 117.024 172.27 117.052C172.312 117.024 174.045 112.125 177.239 108.831C180.477 105.523 184.509 105.026 184.523 105.055C184.566 105.026 183.586 111.16 179.965 114.497" fill="#213555"/>
<path d="M170.055 100.312C172.014 104.075 175.692 105.864 175.72 105.85C175.749 105.892 176.743 100.468 174.457 96.5639C172.199 92.7019 168.124 92.0629 168.152 92.0487C168.181 92.0771 168.124 96.5639 170.069 100.312" fill="#213555"/>
<path d="M182.678 101.931C179.724 105.821 175.536 105.793 175.564 105.821C175.593 105.793 176.473 100.667 179.057 96.8478C181.669 93 185.531 91.7931 185.56 91.8215C185.602 91.7789 185.673 98.0121 182.678 101.945" fill="#213555"/>
<path d="M170.594 89.7344C173.15 93.0994 177.041 94.2069 177.069 94.1785C177.112 94.2211 177.168 88.6837 174.272 85.2335C171.404 81.8116 167.3 81.911 167.329 81.8826C167.357 81.911 168.081 86.3693 170.609 89.7202" fill="#213555"/>
<path d="M183.231 89.067C181.002 93.4402 176.885 94.1643 176.913 94.1785C176.941 94.1501 176.941 88.9392 178.816 84.6939C180.718 80.4202 184.282 78.5318 184.31 78.546C184.339 78.5034 185.489 84.6655 183.231 89.0812" fill="#213555"/>
<path d="M169.317 79.1565C172.412 82.0388 176.402 82.4363 176.416 82.4079C176.459 82.4363 175.564 76.9415 172.114 74.0308C168.692 71.1344 164.688 71.9579 164.702 71.9295C164.745 71.9579 166.264 76.2742 169.317 79.1565Z" fill="#213555"/>
<path d="M181.556 76.2316C180.136 80.9739 176.231 82.4222 176.274 82.4364C176.288 82.3938 175.408 77.2397 176.473 72.6678C177.566 68.0817 180.704 65.5544 180.732 65.5544C180.761 65.5118 183.004 71.4468 181.556 76.2316Z" fill="#213555"/>
<path d="M166.151 68.8342C169.714 71.1769 173.69 70.8504 173.704 70.822C173.761 70.8504 171.887 65.526 167.925 63.2116C164.007 60.9115 160.23 62.4449 160.244 62.4165C160.287 62.4307 162.629 66.5056 166.151 68.8342Z" fill="#213555"/>
<path d="M177.595 63.7511C177.084 68.7348 173.52 70.8788 173.562 70.8788C173.577 70.8362 171.773 65.8525 171.93 61.0818C172.114 56.2827 174.698 53.2017 174.727 53.2017C174.755 53.1449 178.134 58.7107 177.595 63.7369" fill="#213555"/>
<path d="M161.053 59.0515C165.029 60.7695 168.862 59.7472 168.876 59.7188C168.933 59.733 166.051 54.7351 161.649 53.0881C157.305 51.4553 153.869 53.6277 153.883 53.5993C153.94 53.5993 157.12 57.3193 161.053 59.0515Z" fill="#213555"/>
<path d="M171.29 51.938C171.787 57.0353 168.692 59.804 168.734 59.804C168.734 59.7614 165.994 55.0759 165.156 50.2484C164.347 45.3925 166.221 41.8287 166.264 41.8287C166.278 41.7719 170.807 46.7982 171.29 51.938Z" fill="#213555"/>
<path d="M153.954 50.0638C158.27 51.1287 161.834 49.4249 161.848 49.3965C161.919 49.3965 158 44.853 153.23 43.9301C148.516 43.0072 145.563 45.7901 145.577 45.7617C145.634 45.7617 149.694 48.999 153.968 50.078" fill="#213555"/>
<path d="M162.572 41.133C164.177 46.2018 161.692 49.5101 161.735 49.5101C161.735 49.4675 158.029 45.2079 156.098 40.4656C154.181 35.6808 155.232 31.7478 155.274 31.7478C155.274 31.691 160.996 36.0215 162.572 41.133Z" fill="#213555"/>
<path d="M111.685 159.151L111.728 158.214C119.523 158.625 127.247 157.461 134.658 154.778C141.885 152.151 148.516 148.189 154.38 142.993C166.534 132.216 174.073 117.208 175.592 100.738C176.842 87.2496 175.493 75.3229 171.574 65.2846C167.372 54.508 160.301 46.216 150.546 40.636L151.015 39.8125C160.954 45.4919 168.167 53.9542 172.455 64.9296C176.416 75.1099 177.793 87.1786 176.53 100.823C174.982 117.535 167.329 132.77 155.005 143.703C149.055 148.97 142.325 153.003 134.985 155.658C127.445 158.398 119.608 159.577 111.685 159.151Z" fill="#213555"/>
<path d="M93.8092 0L97.8132 8.12152L106.772 9.42779L100.298 15.7461L101.831 24.6769L93.8092 20.46L85.787 24.6769L87.3205 15.7461L80.8318 9.42779L89.8052 8.12152L93.8092 0Z" fill="#213555"/>
<path d="M62.9274 15.1214L65.8949 21.1273L72.5114 22.0786L67.7265 26.7499L68.8482 33.3522L62.9274 30.2285L57.0067 33.3522L58.1425 26.7499L53.3577 22.0786L59.9742 21.1273L62.9274 15.1214Z" fill="#213555"/>
<path d="M124.676 15.1214L127.644 21.1273L134.26 22.0786L129.476 26.7499L130.597 33.3522L124.676 30.2285L118.756 33.3522L119.892 26.7499L115.093 22.0786L121.723 21.1273L124.676 15.1214Z" fill="#213555"/>
<path d="M81.128 160V151.6H82.688V160H81.128ZM86.664 160V152.92H83.88V151.6H91.008V152.92H88.224V160H86.664ZM92.1788 160V151.6H93.7388V160H92.1788ZM96.0108 160V151.6H99.4668C100.211 151.6 100.847 151.72 101.375 151.96C101.911 152.2 102.323 152.544 102.611 152.992C102.899 153.44 103.043 153.972 103.043 154.588C103.043 155.204 102.899 155.736 102.611 156.184C102.323 156.632 101.911 156.976 101.375 157.216C100.847 157.456 100.211 157.576 99.4668 157.576H96.8748L97.5708 156.844V160H96.0108ZM97.5708 157.012L96.8748 156.256H99.3948C100.083 156.256 100.599 156.112 100.943 155.824C101.295 155.528 101.471 155.116 101.471 154.588C101.471 154.052 101.295 153.64 100.943 153.352C100.599 153.064 100.083 152.92 99.3948 152.92H96.8748L97.5708 152.152V157.012ZM104.714 160.084C104.442 160.084 104.21 159.992 104.018 159.808C103.826 159.616 103.73 159.376 103.73 159.088C103.73 158.784 103.826 158.544 104.018 158.368C104.21 158.184 104.442 158.092 104.714 158.092C104.986 158.092 105.218 158.184 105.41 158.368C105.602 158.544 105.698 158.784 105.698 159.088C105.698 159.376 105.602 159.616 105.41 159.808C105.218 159.992 104.986 160.084 104.714 160.084Z" fill="#213555"/>
<path d="M80.35 169V168.13L83.13 165.49C83.3633 165.27 83.5367 165.077 83.65 164.91C83.7633 164.743 83.8367 164.59 83.87 164.45C83.91 164.303 83.93 164.167 83.93 164.04C83.93 163.72 83.82 163.473 83.6 163.3C83.38 163.12 83.0567 163.03 82.63 163.03C82.29 163.03 81.98 163.09 81.7 163.21C81.4267 163.33 81.19 163.513 80.99 163.76L80.08 163.06C80.3533 162.693 80.72 162.41 81.18 162.21C81.6467 162.003 82.1667 161.9 82.74 161.9C83.2467 161.9 83.6867 161.983 84.06 162.15C84.44 162.31 84.73 162.54 84.93 162.84C85.1367 163.14 85.24 163.497 85.24 163.91C85.24 164.137 85.21 164.363 85.15 164.59C85.09 164.81 84.9767 165.043 84.81 165.29C84.6433 165.537 84.4 165.813 84.08 166.12L81.69 168.39L81.42 167.9H85.51V169H80.35ZM89.1803 169.1C88.627 169.1 88.127 168.96 87.6803 168.68C87.2403 168.4 86.8936 167.993 86.6403 167.46C86.387 166.92 86.2603 166.267 86.2603 165.5C86.2603 164.733 86.387 164.083 86.6403 163.55C86.8936 163.01 87.2403 162.6 87.6803 162.32C88.127 162.04 88.627 161.9 89.1803 161.9C89.7403 161.9 90.2403 162.04 90.6803 162.32C91.1203 162.6 91.467 163.01 91.7203 163.55C91.9803 164.083 92.1103 164.733 92.1103 165.5C92.1103 166.267 91.9803 166.92 91.7203 167.46C91.467 167.993 91.1203 168.4 90.6803 168.68C90.2403 168.96 89.7403 169.1 89.1803 169.1ZM89.1803 167.97C89.507 167.97 89.7903 167.883 90.0303 167.71C90.2703 167.53 90.457 167.257 90.5903 166.89C90.7303 166.523 90.8003 166.06 90.8003 165.5C90.8003 164.933 90.7303 164.47 90.5903 164.11C90.457 163.743 90.2703 163.473 90.0303 163.3C89.7903 163.12 89.507 163.03 89.1803 163.03C88.867 163.03 88.587 163.12 88.3403 163.3C88.1003 163.473 87.9103 163.743 87.7703 164.11C87.637 164.47 87.5703 164.933 87.5703 165.5C87.5703 166.06 87.637 166.523 87.7703 166.89C87.9103 167.257 88.1003 167.53 88.3403 167.71C88.587 167.883 88.867 167.97 89.1803 167.97ZM92.8891 169V168.13L95.6691 165.49C95.9024 165.27 96.0757 165.077 96.1891 164.91C96.3024 164.743 96.3757 164.59 96.4091 164.45C96.4491 164.303 96.4691 164.167 96.4691 164.04C96.4691 163.72 96.3591 163.473 96.1391 163.3C95.9191 163.12 95.5957 163.03 95.1691 163.03C94.8291 163.03 94.5191 163.09 94.2391 163.21C93.9657 163.33 93.7291 163.513 93.5291 163.76L92.6191 163.06C92.8924 162.693 93.2591 162.41 93.7191 162.21C94.1857 162.003 94.7057 161.9 95.2791 161.9C95.7857 161.9 96.2257 161.983 96.5991 162.15C96.9791 162.31 97.2691 162.54 97.4691 162.84C97.6757 163.14 97.7791 163.497 97.7791 163.91C97.7791 164.137 97.7491 164.363 97.6891 164.59C97.6291 164.81 97.5157 165.043 97.3491 165.29C97.1824 165.537 96.9391 165.813 96.6191 166.12L94.2291 168.39L93.9591 167.9H98.0491V169H92.8891ZM101.119 169.1C100.626 169.1 100.143 169.03 99.6694 168.89C99.2027 168.743 98.8094 168.543 98.4894 168.29L99.0394 167.28C99.2927 167.487 99.5994 167.653 99.9594 167.78C100.326 167.907 100.706 167.97 101.099 167.97C101.559 167.97 101.919 167.873 102.179 167.68C102.446 167.487 102.579 167.227 102.579 166.9C102.579 166.68 102.523 166.487 102.409 166.32C102.303 166.153 102.109 166.027 101.829 165.94C101.556 165.853 101.179 165.81 100.699 165.81H99.0094L99.3694 162H103.479V163.09H99.8494L100.529 162.47L100.259 165.32L99.5794 164.71H100.989C101.683 164.71 102.239 164.803 102.659 164.99C103.086 165.17 103.396 165.423 103.589 165.75C103.789 166.07 103.889 166.437 103.889 166.85C103.889 167.257 103.789 167.63 103.589 167.97C103.389 168.31 103.083 168.583 102.669 168.79C102.263 168.997 101.746 169.1 101.119 169.1Z" fill="#213555"/>
</svg>
