<svg width="197" height="212" viewBox="0 0 197 212" fill="none" xmlns="http://www.w3.org/2000/svg">
<path d="M58.084 187.162C57.004 187.162 56.038 186.946 55.186 186.514C54.346 186.082 53.686 185.488 53.206 184.732C52.726 183.964 52.486 183.088 52.486 182.104C52.486 181.12 52.726 180.25 53.206 179.494C53.686 178.738 54.346 178.15 55.186 177.73C56.038 177.298 57.004 177.082 58.084 177.082C59.188 177.082 60.142 177.316 60.946 177.784C61.75 178.252 62.32 178.912 62.656 179.764L60.01 181.114C59.782 180.658 59.5 180.328 59.164 180.124C58.828 179.908 58.462 179.8 58.066 179.8C57.67 179.8 57.31 179.89 56.986 180.07C56.662 180.25 56.404 180.514 56.212 180.862C56.032 181.198 55.942 181.612 55.942 182.104C55.942 182.608 56.032 183.034 56.212 183.382C56.404 183.73 56.662 183.994 56.986 184.174C57.31 184.354 57.67 184.444 58.066 184.444C58.462 184.444 58.828 184.342 59.164 184.138C59.5 183.922 59.782 183.586 60.01 183.13L62.656 184.48C62.32 185.332 61.75 185.992 60.946 186.46C60.142 186.928 59.188 187.162 58.084 187.162ZM68.7342 187.162C67.6662 187.162 66.7182 186.946 65.8902 186.514C65.0622 186.082 64.4082 185.488 63.9282 184.732C63.4602 183.964 63.2262 183.088 63.2262 182.104C63.2262 181.12 63.4602 180.25 63.9282 179.494C64.4082 178.738 65.0622 178.15 65.8902 177.73C66.7182 177.298 67.6662 177.082 68.7342 177.082C69.8022 177.082 70.7502 177.298 71.5782 177.73C72.4182 178.15 73.0722 178.738 73.5402 179.494C74.0082 180.25 74.2422 181.12 74.2422 182.104C74.2422 183.088 74.0082 183.964 73.5402 184.732C73.0722 185.488 72.4182 186.082 71.5782 186.514C70.7502 186.946 69.8022 187.162 68.7342 187.162ZM68.7342 184.444C69.1302 184.444 69.4782 184.354 69.7782 184.174C70.0902 183.994 70.3362 183.73 70.5162 183.382C70.6962 183.022 70.7862 182.596 70.7862 182.104C70.7862 181.612 70.6962 181.198 70.5162 180.862C70.3362 180.514 70.0902 180.25 69.7782 180.07C69.4782 179.89 69.1302 179.8 68.7342 179.8C68.3502 179.8 68.0022 179.89 67.6902 180.07C67.3902 180.25 67.1442 180.514 66.9522 180.862C66.7722 181.198 66.6822 181.612 66.6822 182.104C66.6822 182.596 66.7722 183.022 66.9522 183.382C67.1442 183.73 67.3902 183.994 67.6902 184.174C68.0022 184.354 68.3502 184.444 68.7342 184.444ZM79.9305 187.162C79.1385 187.162 78.4245 187.006 77.7885 186.694C77.1645 186.382 76.6725 185.896 76.3125 185.236C75.9645 184.564 75.7905 183.718 75.7905 182.698V177.244H79.2105V182.14C79.2105 182.896 79.3485 183.436 79.6245 183.76C79.9125 184.084 80.3145 184.246 80.8305 184.246C81.1665 184.246 81.4725 184.168 81.7485 184.012C82.0245 183.856 82.2465 183.61 82.4145 183.274C82.5825 182.926 82.6665 182.482 82.6665 181.942V177.244H86.0865V187H82.8285V184.246L83.4585 185.02C83.1225 185.74 82.6365 186.28 82.0005 186.64C81.3645 186.988 80.6745 187.162 79.9305 187.162ZM88.2894 187V177.244H91.5474V180.088L91.0614 179.278C91.3494 178.546 91.8174 178 92.4654 177.64C93.1134 177.268 93.8994 177.082 94.8234 177.082V180.16C94.6674 180.136 94.5294 180.124 94.4094 180.124C94.3014 180.112 94.1814 180.106 94.0494 180.106C93.3534 180.106 92.7894 180.298 92.3574 180.682C91.9254 181.054 91.7094 181.666 91.7094 182.518V187H88.2894ZM99.8159 187.162C98.9879 187.162 98.1779 187.066 97.3859 186.874C96.6059 186.682 95.9759 186.442 95.4959 186.154L96.5219 183.814C96.9779 184.09 97.5119 184.312 98.1239 184.48C98.7359 184.636 99.3359 184.714 99.9239 184.714C100.5 184.714 100.896 184.654 101.112 184.534C101.34 184.414 101.454 184.252 101.454 184.048C101.454 183.856 101.346 183.718 101.13 183.634C100.926 183.538 100.65 183.466 100.302 183.418C99.9659 183.37 99.5939 183.316 99.1859 183.256C98.7779 183.196 98.3639 183.118 97.9439 183.022C97.5359 182.914 97.1579 182.758 96.8099 182.554C96.4739 182.338 96.2039 182.05 95.9999 181.69C95.7959 181.33 95.6939 180.874 95.6939 180.322C95.6939 179.698 95.8739 179.146 96.2339 178.666C96.6059 178.174 97.1459 177.79 97.8539 177.514C98.5619 177.226 99.4259 177.082 100.446 177.082C101.13 177.082 101.82 177.154 102.516 177.298C103.224 177.43 103.818 177.634 104.298 177.91L103.272 180.232C102.792 179.956 102.312 179.77 101.832 179.674C101.352 179.566 100.896 179.512 100.464 179.512C99.8879 179.512 99.4799 179.578 99.2399 179.71C99.0119 179.842 98.8979 180.004 98.8979 180.196C98.8979 180.388 98.9999 180.538 99.2039 180.646C99.4079 180.742 99.6779 180.82 100.014 180.88C100.362 180.928 100.74 180.982 101.148 181.042C101.556 181.09 101.964 181.168 102.372 181.276C102.792 181.384 103.17 181.546 103.506 181.762C103.854 181.966 104.13 182.248 104.334 182.608C104.538 182.956 104.64 183.406 104.64 183.958C104.64 184.558 104.454 185.098 104.082 185.578C103.722 186.058 103.182 186.442 102.462 186.73C101.754 187.018 100.872 187.162 99.8159 187.162ZM111.226 187.162C110.074 187.162 109.066 186.946 108.202 186.514C107.35 186.07 106.684 185.47 106.204 184.714C105.736 183.946 105.502 183.076 105.502 182.104C105.502 181.132 105.73 180.268 106.186 179.512C106.654 178.744 107.296 178.15 108.112 177.73C108.928 177.298 109.846 177.082 110.866 177.082C111.826 177.082 112.702 177.28 113.494 177.676C114.286 178.06 114.916 178.63 115.384 179.386C115.852 180.142 116.086 181.06 116.086 182.14C116.086 182.26 116.08 182.398 116.068 182.554C116.056 182.71 116.044 182.854 116.032 182.986H108.31V181.186H114.214L112.918 181.69C112.93 181.246 112.846 180.862 112.666 180.538C112.498 180.214 112.258 179.962 111.946 179.782C111.646 179.602 111.292 179.512 110.884 179.512C110.476 179.512 110.116 179.602 109.804 179.782C109.504 179.962 109.27 180.22 109.102 180.556C108.934 180.88 108.85 181.264 108.85 181.708V182.23C108.85 182.71 108.946 183.124 109.138 183.472C109.342 183.82 109.63 184.09 110.002 184.282C110.374 184.462 110.818 184.552 111.334 184.552C111.814 184.552 112.222 184.486 112.558 184.354C112.906 184.21 113.248 183.994 113.584 183.706L115.384 185.578C114.916 186.094 114.34 186.49 113.656 186.766C112.972 187.03 112.162 187.162 111.226 187.162ZM117.662 187V177.244H120.92V180.088L120.434 179.278C120.722 178.546 121.19 178 121.838 177.64C122.486 177.268 123.272 177.082 124.196 177.082V180.16C124.04 180.136 123.902 180.124 123.782 180.124C123.674 180.112 123.554 180.106 123.422 180.106C122.726 180.106 122.162 180.298 121.73 180.682C121.298 181.054 121.082 181.666 121.082 182.518V187H117.662ZM130.986 187V185.182L130.752 184.732V181.384C130.752 180.844 130.584 180.43 130.248 180.142C129.924 179.842 129.402 179.692 128.682 179.692C128.214 179.692 127.74 179.77 127.26 179.926C126.78 180.07 126.372 180.274 126.036 180.538L124.884 178.216C125.436 177.856 126.096 177.58 126.864 177.388C127.644 177.184 128.418 177.082 129.186 177.082C130.77 177.082 131.994 177.448 132.858 178.18C133.734 178.9 134.172 180.034 134.172 181.582V187H130.986ZM128.106 187.162C127.326 187.162 126.666 187.03 126.126 186.766C125.586 186.502 125.172 186.142 124.884 185.686C124.608 185.23 124.47 184.72 124.47 184.156C124.47 183.556 124.62 183.04 124.92 182.608C125.232 182.164 125.706 181.828 126.342 181.6C126.978 181.36 127.8 181.24 128.808 181.24H131.112V183.022H129.276C128.724 183.022 128.334 183.112 128.106 183.292C127.89 183.472 127.782 183.712 127.782 184.012C127.782 184.312 127.896 184.552 128.124 184.732C128.352 184.912 128.664 185.002 129.06 185.002C129.432 185.002 129.768 184.912 130.068 184.732C130.38 184.54 130.608 184.252 130.752 183.868L131.22 185.128C131.04 185.8 130.686 186.31 130.158 186.658C129.642 186.994 128.958 187.162 128.106 187.162Z" fill="white"/>
<path d="M4.104 207V196.776H0.072V194.4H11.052V196.776H7.02V207H4.104ZM10.3321 207L15.9481 194.4H18.8281L24.4621 207H21.4021L16.7941 195.876H17.9461L13.3201 207H10.3321ZM13.1401 204.3L13.9141 202.086H20.3941L21.1861 204.3H13.1401ZM31.6776 207.216C30.6816 207.216 29.7636 207.06 28.9236 206.748C28.0956 206.424 27.3696 205.968 26.7456 205.38C26.1336 204.792 25.6536 204.102 25.3056 203.31C24.9696 202.518 24.8016 201.648 24.8016 200.7C24.8016 199.752 24.9696 198.882 25.3056 198.09C25.6536 197.298 26.1396 196.608 26.7636 196.02C27.3876 195.432 28.1196 194.982 28.9596 194.67C29.7996 194.346 30.7236 194.184 31.7316 194.184C32.8476 194.184 33.8496 194.37 34.7376 194.742C35.6376 195.114 36.3936 195.654 37.0056 196.362L35.1336 198.09C34.6776 197.61 34.1796 197.256 33.6396 197.028C33.0996 196.788 32.5116 196.668 31.8756 196.668C31.2636 196.668 30.7056 196.764 30.2016 196.956C29.6976 197.148 29.2596 197.424 28.8876 197.784C28.5276 198.144 28.2456 198.57 28.0416 199.062C27.8496 199.554 27.7536 200.1 27.7536 200.7C27.7536 201.288 27.8496 201.828 28.0416 202.32C28.2456 202.812 28.5276 203.244 28.8876 203.616C29.2596 203.976 29.6916 204.252 30.1836 204.444C30.6876 204.636 31.2396 204.732 31.8396 204.732C32.4156 204.732 32.9736 204.642 33.5136 204.462C34.0656 204.27 34.5996 203.952 35.1156 203.508L36.7716 205.614C36.0876 206.13 35.2896 206.526 34.3776 206.802C33.4776 207.078 32.5776 207.216 31.6776 207.216ZM34.1076 205.236V200.502H36.7716V205.614L34.1076 205.236ZM39.4803 207V194.4H42.3963V204.624H48.7143V207H39.4803ZM50.3436 207V194.4H53.2596V207H50.3436ZM56.2499 207V194.4H58.6619L66.0959 203.472H64.9259V194.4H67.8059V207H65.4119L57.9599 197.928H59.1299V207H56.2499ZM73.469 199.476H79.535V201.744H73.469V199.476ZM73.685 204.66H80.543V207H70.787V194.4H80.309V196.74H73.685V204.66ZM94.0448 207.216C93.0488 207.216 92.1308 207.06 91.2908 206.748C90.4628 206.424 89.7368 205.968 89.1128 205.38C88.5008 204.792 88.0208 204.102 87.6728 203.31C87.3368 202.518 87.1688 201.648 87.1688 200.7C87.1688 199.752 87.3368 198.882 87.6728 198.09C88.0208 197.298 88.5068 196.608 89.1308 196.02C89.7548 195.432 90.4868 194.982 91.3268 194.67C92.1668 194.346 93.0908 194.184 94.0988 194.184C95.2148 194.184 96.2168 194.37 97.1048 194.742C98.0048 195.114 98.7608 195.654 99.3728 196.362L97.5008 198.09C97.0448 197.61 96.5468 197.256 96.0068 197.028C95.4668 196.788 94.8788 196.668 94.2428 196.668C93.6308 196.668 93.0728 196.764 92.5688 196.956C92.0648 197.148 91.6268 197.424 91.2548 197.784C90.8948 198.144 90.6128 198.57 90.4088 199.062C90.2168 199.554 90.1208 200.1 90.1208 200.7C90.1208 201.288 90.2168 201.828 90.4088 202.32C90.6128 202.812 90.8948 203.244 91.2548 203.616C91.6268 203.976 92.0588 204.252 92.5508 204.444C93.0548 204.636 93.6068 204.732 94.2068 204.732C94.7828 204.732 95.3408 204.642 95.8808 204.462C96.4328 204.27 96.9668 203.952 97.4828 203.508L99.1388 205.614C98.4548 206.13 97.6568 206.526 96.7448 206.802C95.8448 207.078 94.9448 207.216 94.0448 207.216ZM96.4748 205.236V200.502H99.1388V205.614L96.4748 205.236ZM107.968 207.216C106.972 207.216 106.048 207.054 105.196 206.73C104.356 206.406 103.624 205.95 103 205.362C102.388 204.774 101.908 204.084 101.56 203.292C101.224 202.5 101.056 201.636 101.056 200.7C101.056 199.764 101.224 198.9 101.56 198.108C101.908 197.316 102.394 196.626 103.018 196.038C103.642 195.45 104.374 194.994 105.214 194.67C106.054 194.346 106.966 194.184 107.95 194.184C108.946 194.184 109.858 194.346 110.686 194.67C111.526 194.994 112.252 195.45 112.864 196.038C113.488 196.626 113.974 197.316 114.322 198.108C114.67 198.888 114.844 199.752 114.844 200.7C114.844 201.636 114.67 202.506 114.322 203.31C113.974 204.102 113.488 204.792 112.864 205.38C112.252 205.956 111.526 206.406 110.686 206.73C109.858 207.054 108.952 207.216 107.968 207.216ZM107.95 204.732C108.514 204.732 109.03 204.636 109.498 204.444C109.978 204.252 110.398 203.976 110.758 203.616C111.118 203.256 111.394 202.83 111.586 202.338C111.79 201.846 111.892 201.3 111.892 200.7C111.892 200.1 111.79 199.554 111.586 199.062C111.394 198.57 111.118 198.144 110.758 197.784C110.41 197.424 109.996 197.148 109.516 196.956C109.036 196.764 108.514 196.668 107.95 196.668C107.386 196.668 106.864 196.764 106.384 196.956C105.916 197.148 105.502 197.424 105.142 197.784C104.782 198.144 104.5 198.57 104.296 199.062C104.104 199.554 104.008 200.1 104.008 200.7C104.008 201.288 104.104 201.834 104.296 202.338C104.5 202.83 104.776 203.256 105.124 203.616C105.484 203.976 105.904 204.252 106.384 204.444C106.864 204.636 107.386 204.732 107.95 204.732ZM119.717 199.476H125.783V201.744H119.717V199.476ZM119.933 204.66H126.791V207H117.035V194.4H126.557V196.74H119.933V204.66ZM133.251 207.216C132.243 207.216 131.277 207.084 130.353 206.82C129.429 206.544 128.685 206.19 128.121 205.758L129.111 203.562C129.651 203.946 130.287 204.264 131.019 204.516C131.763 204.756 132.513 204.876 133.269 204.876C133.845 204.876 134.307 204.822 134.655 204.714C135.015 204.594 135.279 204.432 135.447 204.228C135.615 204.024 135.699 203.79 135.699 203.526C135.699 203.19 135.567 202.926 135.303 202.734C135.039 202.53 134.691 202.368 134.259 202.248C133.827 202.116 133.347 201.996 132.819 201.888C132.303 201.768 131.781 201.624 131.253 201.456C130.737 201.288 130.263 201.072 129.831 200.808C129.399 200.544 129.045 200.196 128.769 199.764C128.505 199.332 128.373 198.78 128.373 198.108C128.373 197.388 128.565 196.734 128.949 196.146C129.345 195.546 129.933 195.072 130.713 194.724C131.505 194.364 132.495 194.184 133.683 194.184C134.475 194.184 135.255 194.28 136.023 194.472C136.791 194.652 137.469 194.928 138.057 195.3L137.157 197.514C136.569 197.178 135.981 196.932 135.393 196.776C134.805 196.608 134.229 196.524 133.665 196.524C133.101 196.524 132.639 196.59 132.279 196.722C131.919 196.854 131.661 197.028 131.505 197.244C131.349 197.448 131.271 197.688 131.271 197.964C131.271 198.288 131.403 198.552 131.667 198.756C131.931 198.948 132.279 199.104 132.711 199.224C133.143 199.344 133.617 199.464 134.133 199.584C134.661 199.704 135.183 199.842 135.699 199.998C136.227 200.154 136.707 200.364 137.139 200.628C137.571 200.892 137.919 201.24 138.183 201.672C138.459 202.104 138.597 202.65 138.597 203.31C138.597 204.018 138.399 204.666 138.003 205.254C137.607 205.842 137.013 206.316 136.221 206.676C135.441 207.036 134.451 207.216 133.251 207.216ZM154.327 194.4H157.243V207H154.327V194.4ZM148.603 207H145.687V194.4H148.603V207ZM154.543 201.834H148.387V199.368H154.543V201.834ZM162.906 199.476H168.972V201.744H162.906V199.476ZM163.122 204.66H169.98V207H160.224V194.4H169.746V196.74H163.122V204.66ZM172.301 207V194.4H177.755C178.883 194.4 179.855 194.586 180.671 194.958C181.487 195.318 182.117 195.84 182.561 196.524C183.005 197.208 183.227 198.024 183.227 198.972C183.227 199.908 183.005 200.718 182.561 201.402C182.117 202.074 181.487 202.59 180.671 202.95C179.855 203.31 178.883 203.49 177.755 203.49H173.921L175.217 202.212V207H172.301ZM180.311 207L177.161 202.428H180.275L183.461 207H180.311ZM175.217 202.536L173.921 201.168H177.593C178.493 201.168 179.165 200.976 179.609 200.592C180.053 200.196 180.275 199.656 180.275 198.972C180.275 198.276 180.053 197.736 179.609 197.352C179.165 196.968 178.493 196.776 177.593 196.776H173.921L175.217 195.39V202.536ZM188.219 199.476H194.285V201.744H188.219V199.476ZM188.435 204.66H195.293V207H185.537V194.4H195.059V196.74H188.435V204.66Z" fill="white"/>
<path d="M133.778 117.975L117.421 124.592L97.7421 132.543C97.7421 132.543 97.7278 132.543 97.7136 132.543L97.6142 132.585C97.6142 132.585 97.5007 132.614 97.4581 132.642C97.3019 132.699 97.1457 132.756 96.9895 132.798C96.9043 132.827 96.805 132.841 96.7198 132.869C96.5778 132.898 96.45 132.94 96.308 132.969C96.1944 132.997 96.095 133.011 95.9956 133.025C95.8678 133.04 95.7542 133.068 95.6264 133.068C95.5129 133.068 95.3993 133.082 95.2857 133.096C95.1721 133.096 95.0443 133.096 94.9307 133.096C94.732 133.096 94.5332 133.096 94.3344 133.068C94.306 133.068 94.2776 133.068 94.2492 133.068C94.0788 133.054 93.8942 133.025 93.7239 132.997C93.6671 132.997 93.6103 132.983 93.5535 132.969C93.5251 132.969 93.5109 132.969 93.4825 132.954C93.3547 132.926 93.2127 132.898 93.085 132.855C93.014 132.841 92.9429 132.827 92.8719 132.798C92.7158 132.756 92.5596 132.699 92.4034 132.642C92.3466 132.628 92.2898 132.614 92.2472 132.585L37.8103 110.592C34.1187 109.101 32.1309 104.941 33.5507 101.235C34.999 97.4583 39.2585 95.6125 42.9927 97.1175L91.3669 116.669L92.1762 116.995C93.951 117.705 95.9246 117.705 97.6995 116.995L141.431 99.3183L150.546 95.6409C151.625 95.2149 151.526 93.9513 150.617 93.4543L100.184 70.7084C96.8475 69.2033 93.0281 69.2033 89.6915 70.7084L36.9442 94.4908C34.3317 95.4137 32.1877 97.4157 31.1086 100.099C29.064 105.154 31.5204 110.933 36.575 112.977L90.9836 134.956C91.6225 135.24 92.304 135.439 92.9997 135.581C93.0423 135.581 93.085 135.595 93.1275 135.61C93.3689 135.652 93.6103 135.695 93.8516 135.709C93.9226 135.709 93.9936 135.723 94.0646 135.737C94.3486 135.766 94.6326 135.78 94.9307 135.78C96.1944 135.78 97.4438 135.539 98.6365 135.056L148.487 114.922C150.901 113.943 151.327 113.077 151.327 110.89L133.806 117.961L133.778 117.975ZM37.7535 94.2352C37.7535 94.2352 37.7109 94.2352 37.6967 94.2494C37.7109 94.2494 37.7393 94.2494 37.7535 94.2352ZM39.4431 93.9513C39.4431 93.9513 39.3295 93.9513 39.2727 93.9655C39.3295 93.9655 39.3863 93.9655 39.4431 93.9513ZM38.6054 94.0507C38.6054 94.0507 38.5202 94.0649 38.4776 94.0791C38.5202 94.0791 38.5628 94.0649 38.6054 94.0507Z" fill="white"/>
<path d="M94.9164 129.717C94.1497 129.717 93.383 129.604 92.6163 129.376C92.5879 129.376 92.5595 129.362 92.5453 129.348L40.0819 108.121C39.656 107.951 39.443 107.454 39.6276 107.028C39.798 106.602 40.2949 106.389 40.7209 106.574L93.1558 127.786C94.3627 128.127 95.5412 128.127 96.7481 127.786L147.38 107.369C147.806 107.198 148.289 107.397 148.473 107.837C148.643 108.263 148.445 108.746 148.005 108.931L97.3444 129.362C97.3444 129.362 97.2876 129.376 97.2734 129.391C96.5067 129.618 95.7399 129.731 94.959 129.731" fill="white"/>
<path d="M94.9164 123.896C94.1497 123.896 93.383 123.782 92.6163 123.555C92.5879 123.555 92.5595 123.541 92.5453 123.527L40.0819 102.3C39.656 102.13 39.443 101.647 39.6276 101.207C39.798 100.781 40.2949 100.568 40.7209 100.738L93.1558 121.951C94.3627 122.291 95.5412 122.306 96.7481 121.951L147.38 101.533C147.806 101.363 148.289 101.562 148.473 102.002C148.643 102.428 148.445 102.911 148.005 103.095L97.3444 123.527C97.3444 123.527 97.2876 123.541 97.2734 123.555C96.5067 123.782 95.7399 123.896 94.959 123.896" fill="white"/>
<path d="M90.8274 43.9158L49.5382 62.7714C48.5017 63.2399 48.5017 64.7166 49.5382 65.1993L90.8274 84.0549C92.0768 84.6228 93.5109 84.6228 94.7604 84.0549L136.05 65.1993C137.086 64.7308 137.086 63.2541 136.05 62.7714L94.7604 43.9158C93.5109 43.3479 92.0768 43.3479 90.8274 43.9158Z" fill="white"/>
<path d="M92.5594 106.375C74.3996 106.375 60.7123 100.199 60.7123 92.0061V70.5806L89.7908 83.8561C90.7421 84.2821 91.7501 84.5093 92.7866 84.5093C93.8231 84.5093 94.8312 84.2821 95.7825 83.8561L124.421 70.7793V92.0061C124.421 100.199 110.719 106.375 92.5737 106.375" fill="#213555"/>
<path d="M96.7482 85.9575C95.4988 86.5254 94.1641 86.8236 92.7868 86.8236C91.4096 86.8236 90.075 86.5396 88.8255 85.9575L63.0269 74.1727V91.9918C63.0269 98.6509 76.2456 104.046 92.5597 104.046C108.874 104.046 122.093 98.6509 122.093 91.9918V74.3715L96.734 85.9433L96.7482 85.9575Z" fill="white"/>
<path d="M34.758 35.1979C31.2793 38.137 30.4984 42.9219 30.4984 42.9219C30.4984 42.9219 35.3401 42.9503 38.8187 40.0112C42.2974 37.0721 43.0783 32.2872 43.0783 32.2872C43.0783 32.2872 38.2366 32.2588 34.758 35.1979Z" fill="white"/>
<path d="M54.1246 148.942C56.8791 152.761 56.8791 157.149 56.8507 157.163C56.8507 157.22 50.8447 155.289 48.2748 151.1C45.7049 146.954 47.1815 142.822 47.1389 142.837C47.1531 142.879 51.3701 145.165 54.1246 148.956" fill="white"/>
<path d="M49.3821 161.635C54.7491 160.925 56.8931 156.978 56.8931 157.007C56.8363 157.021 51.1712 155.161 46.2301 155.558C41.2322 155.984 38.1938 158.952 38.1938 158.994C38.1228 158.994 43.9583 162.374 49.3821 161.65" fill="white"/>
<path d="M43.7596 143.916C45.5913 148.062 44.7251 152.279 44.6825 152.293C44.6825 152.349 39.4433 149.496 37.8105 145.009C36.1635 140.579 38.3642 136.831 38.3358 136.831C38.3358 136.873 41.928 139.812 43.7596 143.916Z" fill="white"/>
<path d="M36.8024 155.36C41.9848 155.573 44.7535 152.108 44.7535 152.137C44.6968 152.137 39.7841 149.41 35.0134 148.956C30.2001 148.516 26.7215 150.887 26.7073 150.915C26.6363 150.915 31.5632 155.147 36.8024 155.345" fill="white"/>
<path d="M34.8858 137.313C35.8513 141.63 34.2043 145.563 34.1617 145.563C34.1617 145.62 29.7175 141.985 28.965 137.356C28.2125 132.784 31.0096 129.518 30.9812 129.518C30.9812 129.561 33.9061 133.025 34.8858 137.313Z" fill="white"/>
<path d="M26.0683 147.196C30.981 148.275 34.275 145.392 34.2608 145.435C34.204 145.435 30.0581 141.956 25.543 140.707C20.9853 139.457 17.1942 141.147 17.18 141.175C17.1233 141.175 21.0846 146.116 26.0541 147.196" fill="white"/>
<path d="M27.5734 129.376C27.7296 133.735 25.4011 137.257 25.3727 137.257C25.3727 137.313 21.7378 133.011 21.8372 128.397C21.9224 123.825 25.2023 121.127 25.1739 121.127C25.1739 121.17 27.4172 125.06 27.5734 129.376Z" fill="white"/>
<path d="M17.2512 137.441C21.8089 139.344 25.5005 137.115 25.4863 137.143C25.4437 137.143 22.0645 133.054 17.9043 131.052C13.7016 129.05 9.69761 130.03 9.68341 130.058C9.62662 130.044 12.6225 135.539 17.237 137.441" fill="white"/>
<path d="M21.8799 120.403C21.2694 124.677 18.3871 127.687 18.3587 127.687C18.3445 127.744 15.5758 122.93 16.4561 118.429C17.3222 113.971 20.9854 111.927 20.957 111.927C20.957 111.969 22.4763 116.158 21.8941 120.403" fill="white"/>
<path d="M10.4073 126.437C14.5249 129.078 18.5005 127.559 18.4863 127.587C18.4437 127.573 15.888 123.016 12.1538 120.318C8.39117 117.62 4.31619 117.861 4.2878 117.89C4.231 117.861 6.23297 123.768 10.3931 126.423" fill="white"/>
<path d="M17.833 110.62C16.5126 114.695 13.1759 117.123 13.1617 117.109C13.1333 117.152 11.2449 111.969 12.8493 107.724C14.4396 103.507 18.3725 102.158 18.3441 102.144C18.3299 102.186 19.1393 106.574 17.833 110.62Z" fill="white"/>
<path d="M5.59436 114.496C9.17238 117.819 13.3184 117.024 13.3042 117.052C13.2616 117.024 11.5294 112.125 8.3347 108.831C5.09745 105.523 1.06508 105.026 1.05088 105.054C1.00828 105.026 1.98796 111.16 5.60858 114.496" fill="white"/>
<path d="M15.5191 100.312C13.5597 104.075 9.88225 105.864 9.85385 105.85C9.82545 105.892 8.83158 100.468 11.1175 96.5638C13.3751 92.7018 17.4501 92.0629 17.4217 92.0487C17.3933 92.0771 17.45 96.5638 15.5049 100.312" fill="white"/>
<path d="M2.89648 101.931C5.84976 105.821 10.0383 105.793 10.0099 105.821C9.98153 105.793 9.10124 100.667 6.51712 96.8478C3.9046 93 0.0425893 91.7931 0.0141924 91.8215C-0.028403 91.7789 -0.0993969 98.0121 2.89648 101.945" fill="white"/>
<path d="M14.9794 89.7343C12.4236 93.0994 8.53326 94.2068 8.50486 94.1784C8.46227 94.221 8.40547 88.6836 11.302 85.2334C14.1701 81.8116 18.2734 81.911 18.245 81.8826C18.2166 81.911 17.4925 86.3693 14.9651 89.7201" fill="white"/>
<path d="M2.34279 89.0669C4.57195 93.4401 8.68948 94.1642 8.66108 94.1784C8.63269 94.15 8.63269 88.9391 6.75849 84.6938C4.8559 80.4201 1.29209 78.5317 1.26369 78.5459C1.23529 78.5033 0.0852297 84.6654 2.34279 89.0811" fill="white"/>
<path d="M16.2574 79.1565C13.1621 82.0388 9.17237 82.4363 9.15817 82.4079C9.11558 82.4363 10.0101 76.9415 13.4603 74.0308C16.8821 71.1344 20.8861 71.9579 20.8719 71.9295C20.8293 71.9579 19.3101 76.2742 16.2574 79.1565Z" fill="white"/>
<path d="M4.01819 76.2316C5.43804 80.9738 9.34262 82.4221 9.30002 82.4363C9.28582 82.3937 10.1661 77.2397 9.10122 72.6677C8.00794 68.0816 4.87008 65.5543 4.84168 65.5543C4.81328 65.5117 2.56994 71.4467 4.01819 76.2316Z" fill="white"/>
<path d="M19.4233 68.8342C15.8594 71.1769 11.8839 70.8504 11.8697 70.822C11.8129 70.8504 13.6871 65.5259 17.6484 63.2116C21.5672 60.9114 25.344 62.4449 25.3298 62.4165C25.2872 62.4307 22.9445 66.5056 19.4233 68.8342Z" fill="white"/>
<path d="M7.97961 63.7511C8.49076 68.7347 12.0546 70.8787 12.012 70.8787C11.9978 70.8361 13.801 65.8524 13.6448 61.0818C13.4602 56.2827 10.8761 53.2016 10.8477 53.2016C10.8193 53.1448 7.44007 58.7106 7.97961 63.7369" fill="white"/>
<path d="M24.5207 59.0514C20.5452 60.7694 16.7116 59.7471 16.6974 59.7187C16.6406 59.7329 19.5228 54.7351 23.9244 53.0881C28.2691 51.4552 31.7051 53.6276 31.6909 53.5992C31.6341 53.5992 28.4537 57.3192 24.5207 59.0514Z" fill="white"/>
<path d="M14.2838 51.9379C13.7868 57.0352 16.8821 59.8039 16.8395 59.8039C16.8395 59.7613 19.5798 55.0758 20.4175 50.2483C21.2268 45.3924 19.3526 41.8286 19.31 41.8286C19.2958 41.7718 14.7665 46.7981 14.2838 51.9379Z" fill="white"/>
<path d="M31.6199 50.0638C27.3036 51.1287 23.7398 49.4249 23.7256 49.3965C23.6546 49.3965 27.5733 44.853 32.344 43.9301C37.0579 43.0072 40.0112 45.7901 39.997 45.7617C39.9402 45.7617 35.8794 48.9989 31.6057 50.078" fill="white"/>
<path d="M23.0013 41.1329C21.3968 46.2018 23.8816 49.51 23.839 49.51C23.839 49.4674 27.5448 45.2079 29.4758 40.4656C31.3926 35.6807 30.3419 31.7477 30.2993 31.7477C30.2993 31.691 24.5773 36.0215 23.0013 41.1329Z" fill="white"/>
<path d="M73.889 159.151L73.8464 158.214C66.0515 158.625 58.3275 157.461 50.9159 154.778C43.6889 152.151 37.0582 148.189 31.1942 142.993C19.0403 132.216 11.5009 117.208 9.98167 100.738C8.7322 87.2496 10.0811 75.3229 13.9999 65.2846C18.2026 54.5079 25.2734 46.216 35.0278 40.636L34.5593 39.8125C24.6203 45.4919 17.4075 53.9542 13.1196 64.9296C9.15819 75.1099 7.78094 87.1786 9.04461 100.823C10.5922 117.535 18.2452 132.77 30.5695 143.703C36.5186 148.97 43.2487 153.003 50.5893 155.658C58.1287 158.398 65.9663 159.577 73.889 159.151Z" fill="white"/>
<path d="M150.816 35.1979C154.295 38.137 155.076 42.9219 155.076 42.9219C155.076 42.9219 150.234 42.9503 146.755 40.0112C143.277 37.0721 142.496 32.2872 142.496 32.2872C142.496 32.2872 147.337 32.2588 150.816 35.1979Z" fill="white"/>
<path d="M131.449 148.942C128.695 152.761 128.695 157.149 128.723 157.163C128.723 157.22 134.729 155.289 137.299 151.1C139.869 146.954 138.392 142.822 138.435 142.837C138.421 142.879 134.204 145.165 131.449 148.956" fill="white"/>
<path d="M136.192 161.635C130.825 160.925 128.681 156.978 128.681 157.007C128.737 157.021 134.403 155.161 139.344 155.558C144.341 155.984 147.38 158.952 147.38 158.994C147.451 158.994 141.615 162.374 136.192 161.65" fill="white"/>
<path d="M141.814 143.916C139.983 148.062 140.849 152.279 140.891 152.293C140.891 152.349 146.131 149.496 147.763 145.009C149.41 140.579 147.21 136.831 147.238 136.831C147.238 136.873 143.646 139.812 141.814 143.916Z" fill="white"/>
<path d="M148.772 155.36C143.589 155.573 140.82 152.108 140.82 152.137C140.877 152.137 145.79 149.41 150.561 148.956C155.374 148.516 158.852 150.887 158.867 150.915C158.938 150.915 154.011 155.147 148.772 155.345" fill="white"/>
<path d="M150.688 137.313C149.723 141.63 151.37 145.563 151.412 145.563C151.412 145.62 155.856 141.985 156.609 137.356C157.362 132.784 154.564 129.518 154.593 129.518C154.593 129.561 151.668 133.025 150.688 137.313Z" fill="white"/>
<path d="M159.506 147.196C154.593 148.275 151.299 145.392 151.313 145.435C151.37 145.435 155.516 141.956 160.031 140.707C164.589 139.457 168.38 141.147 168.394 141.175C168.451 141.175 164.489 146.116 159.52 147.196" fill="white"/>
<path d="M158 129.376C157.844 133.735 160.173 137.257 160.201 137.257C160.201 137.313 163.836 133.011 163.737 128.397C163.651 123.825 160.372 121.127 160.4 121.127C160.4 121.17 158.157 125.06 158 129.376Z" fill="white"/>
<path d="M168.323 137.441C163.765 139.344 160.074 137.115 160.088 137.143C160.131 137.143 163.51 133.054 167.67 131.052C171.873 129.05 175.877 130.03 175.891 130.058C175.948 130.044 172.952 135.539 168.337 137.441" fill="white"/>
<path d="M163.694 120.403C164.305 124.677 167.187 127.687 167.215 127.687C167.23 127.744 169.998 122.93 169.118 118.429C168.252 113.971 164.589 111.927 164.617 111.927C164.617 111.969 163.098 116.158 163.68 120.403" fill="white"/>
<path d="M175.167 126.437C171.049 129.078 167.073 127.559 167.088 127.587C167.13 127.573 169.686 123.016 173.42 120.318C177.183 117.62 181.258 117.861 181.286 117.89C181.343 117.861 179.341 123.768 175.181 126.423" fill="white"/>
<path d="M167.741 110.62C169.061 114.695 172.398 117.123 172.412 117.109C172.44 117.152 174.329 111.969 172.724 107.724C171.134 103.507 167.201 102.158 167.23 102.144C167.244 102.186 166.434 106.574 167.741 110.62Z" fill="white"/>
<path d="M179.98 114.496C176.402 117.819 172.256 117.024 172.27 117.052C172.313 117.024 174.045 112.125 177.239 108.831C180.477 105.523 184.509 105.026 184.523 105.054C184.566 105.026 183.586 111.16 179.965 114.496" fill="white"/>
<path d="M170.055 100.312C172.015 104.075 175.692 105.864 175.72 105.85C175.749 105.892 176.743 100.468 174.457 96.5638C172.199 92.7018 168.124 92.0629 168.153 92.0487C168.181 92.0771 168.124 96.5638 170.069 100.312" fill="white"/>
<path d="M182.678 101.931C179.724 105.821 175.536 105.793 175.564 105.821C175.593 105.793 176.473 100.667 179.057 96.8478C181.669 93 185.531 91.7931 185.56 91.8215C185.602 91.7789 185.673 98.0121 182.678 101.945" fill="white"/>
<path d="M170.595 89.7343C173.15 93.0994 177.041 94.2068 177.069 94.1784C177.112 94.221 177.168 88.6836 174.272 85.2334C171.404 81.8116 167.3 81.911 167.329 81.8826C167.357 81.911 168.081 86.3693 170.609 89.7201" fill="white"/>
<path d="M183.231 89.0669C181.002 93.4401 176.884 94.1642 176.913 94.1784C176.941 94.15 176.941 88.9391 178.815 84.6938C180.718 80.4201 184.282 78.5317 184.31 78.5459C184.339 78.5033 185.489 84.6654 183.231 89.0811" fill="white"/>
<path d="M169.317 79.1565C172.412 82.0388 176.402 82.4363 176.416 82.4079C176.459 82.4363 175.564 76.9415 172.114 74.0308C168.692 71.1344 164.688 71.9579 164.702 71.9295C164.745 71.9579 166.264 76.2742 169.317 79.1565Z" fill="white"/>
<path d="M181.556 76.2316C180.136 80.9738 176.231 82.4221 176.274 82.4363C176.288 82.3937 175.408 77.2397 176.473 72.6677C177.566 68.0816 180.704 65.5543 180.732 65.5543C180.761 65.5117 183.004 71.4467 181.556 76.2316Z" fill="white"/>
<path d="M166.151 68.8342C169.714 71.1769 173.69 70.8504 173.704 70.822C173.761 70.8504 171.887 65.5259 167.925 63.2116C164.007 60.9114 160.23 62.4449 160.244 62.4165C160.287 62.4307 162.629 66.5056 166.151 68.8342Z" fill="white"/>
<path d="M177.595 63.7511C177.083 68.7347 173.52 70.8787 173.562 70.8787C173.576 70.8361 171.773 65.8524 171.929 61.0818C172.114 56.2827 174.698 53.2016 174.726 53.2016C174.755 53.1448 178.134 58.7106 177.595 63.7369" fill="white"/>
<path d="M161.053 59.0514C165.029 60.7694 168.862 59.7471 168.877 59.7187C168.933 59.7329 166.051 54.7351 161.65 53.0881C157.305 51.4552 153.869 53.6276 153.883 53.5992C153.94 53.5992 157.12 57.3192 161.053 59.0514Z" fill="white"/>
<path d="M171.29 51.9379C171.787 57.0352 168.692 59.8039 168.734 59.8039C168.734 59.7613 165.994 55.0758 165.156 50.2483C164.347 45.3924 166.221 41.8286 166.264 41.8286C166.278 41.7718 170.807 46.7981 171.29 51.9379Z" fill="white"/>
<path d="M153.954 50.0638C158.27 51.1287 161.834 49.4249 161.848 49.3965C161.919 49.3965 158 44.853 153.23 43.9301C148.516 43.0072 145.563 45.7901 145.577 45.7617C145.634 45.7617 149.694 48.9989 153.968 50.078" fill="white"/>
<path d="M162.572 41.1329C164.177 46.2018 161.692 49.51 161.735 49.51C161.735 49.4674 158.029 45.2079 156.098 40.4656C154.181 35.6807 155.232 31.7477 155.275 31.7477C155.275 31.691 160.996 36.0215 162.572 41.1329Z" fill="white"/>
<path d="M111.685 159.151L111.728 158.214C119.523 158.625 127.247 157.461 134.658 154.778C141.885 152.151 148.516 148.189 154.38 142.993C166.534 132.216 174.073 117.208 175.592 100.738C176.842 87.2496 175.493 75.3229 171.574 65.2846C167.372 54.5079 160.301 46.216 150.546 40.636L151.015 39.8125C160.954 45.4919 168.167 53.9542 172.455 64.9296C176.416 75.1099 177.793 87.1786 176.53 100.823C174.982 117.535 167.329 132.77 155.005 143.703C149.055 148.97 142.325 153.003 134.985 155.658C127.445 158.398 119.608 159.577 111.685 159.151Z" fill="white"/>
<path d="M93.8093 0L97.8133 8.12152L106.773 9.42779L100.298 15.7461L101.831 24.6769L93.8093 20.46L85.7872 24.6769L87.3206 15.7461L80.8319 9.42779L89.8053 8.12152L93.8093 0Z" fill="white"/>
<path d="M62.9277 15.1213L65.8951 21.1273L72.5116 22.0786L67.7268 26.7499L68.8485 33.3522L62.9277 30.2285L57.0069 33.3522L58.1428 26.7499L53.3579 22.0786L59.9744 21.1273L62.9277 15.1213Z" fill="white"/>
<path d="M124.676 15.1213L127.644 21.1273L134.26 22.0786L129.476 26.7499L130.597 33.3522L124.676 30.2285L118.756 33.3522L119.892 26.7499L115.093 22.0786L121.723 21.1273L124.676 15.1213Z" fill="white"/>
<path d="M81.1279 160V151.6H82.6879V160H81.1279ZM86.6639 160V152.92H83.8799V151.6H91.0079V152.92H88.2239V160H86.6639ZM92.1787 160V151.6H93.7387V160H92.1787ZM96.0107 160V151.6H99.4667C100.211 151.6 100.847 151.72 101.375 151.96C101.911 152.2 102.323 152.544 102.611 152.992C102.899 153.44 103.043 153.972 103.043 154.588C103.043 155.204 102.899 155.736 102.611 156.184C102.323 156.632 101.911 156.976 101.375 157.216C100.847 157.456 100.211 157.576 99.4667 157.576H96.8747L97.5707 156.844V160H96.0107ZM97.5707 157.012L96.8747 156.256H99.3947C100.083 156.256 100.599 156.112 100.943 155.824C101.295 155.528 101.471 155.116 101.471 154.588C101.471 154.052 101.295 153.64 100.943 153.352C100.599 153.064 100.083 152.92 99.3947 152.92H96.8747L97.5707 152.152V157.012ZM104.714 160.084C104.442 160.084 104.21 159.992 104.018 159.808C103.826 159.616 103.73 159.376 103.73 159.088C103.73 158.784 103.826 158.544 104.018 158.368C104.21 158.184 104.442 158.092 104.714 158.092C104.986 158.092 105.218 158.184 105.41 158.368C105.602 158.544 105.698 158.784 105.698 159.088C105.698 159.376 105.602 159.616 105.41 159.808C105.218 159.992 104.986 160.084 104.714 160.084Z" fill="white"/>
<path d="M81.3499 169V168.13L84.1299 165.49C84.3632 165.27 84.5365 165.077 84.6499 164.91C84.7632 164.743 84.8365 164.59 84.8699 164.45C84.9099 164.303 84.9299 164.167 84.9299 164.04C84.9299 163.72 84.8199 163.473 84.5999 163.3C84.3799 163.12 84.0565 163.03 83.6299 163.03C83.2899 163.03 82.9799 163.09 82.6999 163.21C82.4265 163.33 82.1899 163.513 81.9899 163.76L81.0799 163.06C81.3532 162.693 81.7199 162.41 82.1799 162.21C82.6465 162.003 83.1665 161.9 83.7399 161.9C84.2465 161.9 84.6865 161.983 85.0599 162.15C85.4399 162.31 85.7299 162.54 85.9299 162.84C86.1365 163.14 86.2399 163.497 86.2399 163.91C86.2399 164.137 86.2099 164.363 86.1499 164.59C86.0899 164.81 85.9765 165.043 85.8099 165.29C85.6432 165.537 85.3999 165.813 85.0799 166.12L82.6899 168.39L82.4199 167.9H86.5099V169H81.3499ZM90.1802 169.1C89.6269 169.1 89.1269 168.96 88.6802 168.68C88.2402 168.4 87.8935 167.993 87.6402 167.46C87.3869 166.92 87.2602 166.267 87.2602 165.5C87.2602 164.733 87.3869 164.083 87.6402 163.55C87.8935 163.01 88.2402 162.6 88.6802 162.32C89.1269 162.04 89.6269 161.9 90.1802 161.9C90.7402 161.9 91.2402 162.04 91.6802 162.32C92.1202 162.6 92.4669 163.01 92.7202 163.55C92.9802 164.083 93.1102 164.733 93.1102 165.5C93.1102 166.267 92.9802 166.92 92.7202 167.46C92.4669 167.993 92.1202 168.4 91.6802 168.68C91.2402 168.96 90.7402 169.1 90.1802 169.1ZM90.1802 167.97C90.5069 167.97 90.7902 167.883 91.0302 167.71C91.2702 167.53 91.4569 167.257 91.5902 166.89C91.7302 166.523 91.8002 166.06 91.8002 165.5C91.8002 164.933 91.7302 164.47 91.5902 164.11C91.4569 163.743 91.2702 163.473 91.0302 163.3C90.7902 163.12 90.5069 163.03 90.1802 163.03C89.8669 163.03 89.5869 163.12 89.3402 163.3C89.1002 163.473 88.9102 163.743 88.7702 164.11C88.6369 164.47 88.5702 164.933 88.5702 165.5C88.5702 166.06 88.6369 166.523 88.7702 166.89C88.9102 167.257 89.1002 167.53 89.3402 167.71C89.5869 167.883 89.8669 167.97 90.1802 167.97ZM93.8889 169V168.13L96.6689 165.49C96.9023 165.27 97.0756 165.077 97.1889 164.91C97.3023 164.743 97.3756 164.59 97.4089 164.45C97.4489 164.303 97.4689 164.167 97.4689 164.04C97.4689 163.72 97.3589 163.473 97.1389 163.3C96.9189 163.12 96.5956 163.03 96.1689 163.03C95.8289 163.03 95.5189 163.09 95.2389 163.21C94.9656 163.33 94.7289 163.513 94.5289 163.76L93.6189 163.06C93.8923 162.693 94.2589 162.41 94.7189 162.21C95.1856 162.003 95.7056 161.9 96.2789 161.9C96.7856 161.9 97.2256 161.983 97.5989 162.15C97.9789 162.31 98.2689 162.54 98.4689 162.84C98.6756 163.14 98.7789 163.497 98.7789 163.91C98.7789 164.137 98.7489 164.363 98.6889 164.59C98.6289 164.81 98.5156 165.043 98.3489 165.29C98.1823 165.537 97.9389 165.813 97.6189 166.12L95.2289 168.39L94.9589 167.9H99.0489V169H93.8889ZM100.919 169V162.5L101.489 163.09H99.4393V162H102.219V169H100.919Z" fill="white"/>
</svg>
